<?xml version="1.0" encoding="utf-8"?>
<svg width="48px" height="48px" viewBox="0 0 48 48" version="1.1" xmlns:xlink="http://www.w3.org/1999/xlink" xmlns="http://www.w3.org/2000/svg">
  <defs>
    <path d="M0 0L48 0L48 48L0 48L0 0Z" id="path_1" />
    <clipPath id="mask_1">
      <use xlink:href="#path_1" />
    </clipPath>
  </defs>
  <g id="icons8_stumbleupon_old_logo">
    <path d="M0 0L48 0L48 48L0 48L0 0Z" id="Background" fill="none" fill-rule="evenodd" stroke="none" />
    <g clip-path="url(#mask_1)">
      <path d="M31.3983 19.8977C31.2764 19.1477 31.1733 18.4165 31.1545 17.6571C31.1358 16.9727 31.1077 16.279 31.042 15.5946C30.9014 14.1415 30.6202 12.7071 30.5827 11.2446C30.5452 9.74459 30.6108 8.24458 30.5827 6.74458C30.5545 5.43208 30.5827 3.91333 30.067 2.67583C29.9827 2.46021 30.0389 2.28208 30.1608 2.16958C26.3639 0.425834 22.0889 -0.436666 17.9358 0.219584C10.5295 1.38208 3.36704 6.81021 1.24829 14.0852C1.24829 14.1696 1.22954 14.2446 1.18267 14.329C1.14517 14.4602 1.10767 14.6008 1.07954 14.7321C1.03267 14.8258 0.985791 14.9196 0.948291 15.0227C0.938916 15.1071 0.920166 15.2008 0.910791 15.2758C0.826415 15.6602 0.723291 16.0446 0.657666 16.429C0.526415 17.1508 0.554541 17.9008 0.301416 18.5852C0.282665 18.7821 0.254541 18.979 0.226416 19.1758C0.226416 19.204 0.226416 19.2227 0.226416 19.2415C0.179541 19.654 0.142041 20.0665 0.104541 20.479C0.0295408 21.3415 -0.00795937 22.204 0.00141585 23.0665C0.0295408 24.6321 0.198291 26.1977 0.554541 27.7165C0.554541 27.7165 0.554541 27.7165 0.563916 27.7165C2.12017 27.4915 3.68579 27.4633 5.25142 27.5008C6.64829 27.529 8.07329 27.6508 9.47017 27.5665C10.342 27.5102 11.3358 27.3977 12.0858 26.9196C12.6952 26.5352 13.1077 25.7758 12.3952 25.2602C11.7577 24.8008 10.8764 24.6696 10.117 24.5665C8.87954 24.4071 7.63267 24.8946 6.37642 24.8196C4.00454 24.679 2.16704 22.3633 1.71704 20.1696C1.30454 18.154 1.68892 15.9227 2.72954 14.1415C3.24517 13.2602 3.90142 12.454 4.72642 11.8446C5.61704 11.1883 6.63892 10.8227 7.71704 10.5883C10.2108 10.054 12.7983 10.2321 15.3295 10.3727C17.3452 10.4852 19.3327 10.1665 21.3483 10.2415C23.2514 10.3071 25.342 10.729 26.392 12.5008C26.9827 13.4946 27.1327 14.6383 27.1983 15.7727C27.2733 17.0665 27.4983 18.3508 27.517 19.654C27.5264 20.8352 27.3577 22.0258 27.442 23.2071C27.5077 24.1633 27.7889 24.9508 28.8295 25.1383C29.8795 25.3258 30.7889 24.7352 31.2202 23.779C31.7452 22.5321 31.6045 21.1915 31.3983 19.8977L31.3983 19.8977Z" transform="translate(3.682959 4.046041)" id="Shape" fill="#71C598" fill-rule="evenodd" stroke="none" />
      <path d="M35.6437 3.83437C35.6437 3.76875 35.6531 3.70312 35.6719 3.64687C34.05 2.19375 32.2125 0.965625 30.3281 0C30.5437 0.646875 30.6281 1.37812 30.6844 2.04375C30.7687 2.93437 30.7875 3.83437 30.7875 4.73437C30.7875 6.525 30.6937 8.33437 30.8812 10.1156C31.0594 11.8406 31.3594 13.5187 31.3594 15.2625C31.3687 16.95 32.1 18.6281 31.6687 20.325C31.4063 21.3562 31.0594 22.3594 30.1406 22.9969C29.25 23.6156 28.1438 23.7094 27.1406 23.3062C25.05 22.4625 25.5844 19.6687 25.6312 17.9062C25.6688 16.5375 25.4344 15.225 25.3594 13.8656C25.3031 12.7781 25.3313 11.4937 24.7594 10.5281C23.7094 8.74687 21.6 8.55937 19.7156 8.60625C18.7219 8.62499 17.7188 8.71874 16.725 8.76562C15.6563 8.82187 14.5969 8.73749 13.5281 8.68124C11.0438 8.55937 8.35313 8.39999 5.9625 9.23437C2.0625 10.6312 0.337499 16.5 3.075 19.6969C3.47812 20.1656 3.975 20.5875 4.52812 20.8687C5.12812 21.1688 5.76562 21.1969 6.43125 21.1312C7.59375 21.0281 8.7 20.7656 9.8625 20.9625C11.3156 21.2062 13.7156 22.0781 12.8344 24.0281C12.1312 25.5938 9.91875 25.9406 8.4 25.9594C5.59687 25.9969 2.79375 25.7062 0 26.0812C0.328125 27.1875 0.759375 28.275 1.29375 29.2969C3.90937 29.2969 6.51563 29.3906 9.13125 29.3906C10.5562 29.3906 11.9812 29.3531 13.3969 29.2031C14.3344 29.1 15.2719 28.9781 16.1625 28.6687C17.55 28.1812 18.7688 27.2437 19.2094 25.7812C19.7344 24.0562 19.6125 21.9562 18.6656 20.4C17.625 18.6844 15.825 17.6531 13.8469 17.4375C11.3719 17.1656 8.49375 18.1781 6.20625 16.7906C5.44688 16.3312 4.8 15.525 5.16563 14.5969C5.56875 13.575 6.87188 13.0687 7.85625 12.8531C9.13125 12.5813 10.4438 12.7125 11.7281 12.825C13.1906 12.9469 14.6344 12.9 16.0969 12.8625C17.8875 12.825 20.1 12.9656 21.1594 14.6625C22.0406 16.0781 21.975 17.8687 21.9188 19.4625C21.8531 21.3375 21.825 23.3625 22.6875 25.0875C23.5781 26.8594 25.3688 27.4875 27.2625 27.5062C29.3344 27.525 31.5188 27.0187 33.2438 25.8281C34.0781 25.2562 34.8281 24.525 35.3063 23.6156C35.8406 22.5937 36.1312 21.4781 36.2813 20.3437C37.0219 14.85 35.6531 9.31875 35.6437 3.83437L35.6437 3.83437Z" transform="translate(4.500001 6.6937504)" id="Shape" fill="#D6E5E5" fill-rule="evenodd" stroke="none" />
      <path d="M38.1469 4.62187C37.3125 2.925 36.1594 1.36875 34.8187 0C34.95 5.10937 36.0562 10.2187 35.5031 15.3281C35.2687 17.4656 34.6594 19.6875 33.0281 21.1969C31.5 22.6125 29.5125 23.4375 27.4594 23.7563C25.5187 24.0563 23.25 24.0281 21.5719 22.8656C20.0625 21.8156 19.3781 20.0156 19.1344 18.2531C18.8719 16.35 19.1906 14.4469 19.0031 12.5531C18.9375 11.8594 18.8062 11.1187 18.3937 10.5375C17.9719 9.92812 17.3062 9.58125 16.5937 9.42188C15.3281 9.14063 14.025 9.27187 12.7406 9.3C11.3344 9.32813 9.95625 9.19687 8.55 9.1125C7.275 9.0375 5.87812 9.06563 4.78125 9.79688C4.49062 9.99375 4.0875 10.3031 4.26562 10.7062C4.43437 11.0906 4.89375 11.325 5.27812 11.4562C7.7625 12.3375 10.3781 11.3531 12.9094 11.9063C14.8312 12.3281 16.6406 13.4531 17.6531 15.1875C18.6656 16.9313 18.9656 19.1906 18.4125 21.1406C17.9344 22.8188 16.8094 24.075 15.2156 24.7688C13.0219 25.725 10.425 25.7531 8.07187 25.7813C5.38125 25.8094 2.69062 25.7156 0 25.6969C0.76875 26.9344 1.70625 28.0594 2.82187 29.0156C4.52812 30.4687 6.525 31.425 8.67187 32.0437C11.0156 32.7281 13.4531 33.1125 15.9 33.1219C20.7281 33.1313 25.575 31.8188 29.55 29.025C36.9187 23.85 42.4594 13.3875 38.1469 4.62187L38.1469 4.62187Z" transform="translate(6.365629 11.315624)" id="Shape" fill="#14B6B9" fill-rule="evenodd" stroke="none" />
      <path d="M41.7455 10.8631C39.383 7.07557 35.5674 4.15057 31.5549 2.27557C27.4955 0.381822 22.8549 -0.490053 18.4112 0.278697C10.7424 1.60995 3.41116 7.28182 1.26429 14.8662C0.954911 15.3818 0.908036 16.0943 0.776785 16.6662C0.683035 17.0693 0.61741 17.4818 0.561161 17.8943C0.551786 17.9318 0.551786 17.9787 0.54241 18.0162C0.533036 18.0443 0.52366 18.0631 0.52366 18.0912C0.44866 18.4849 0.383035 18.8787 0.326786 19.2724C0.326786 19.2818 0.317411 19.2818 0.317411 19.2912C0.270536 19.4037 0.261161 19.5068 0.279911 19.5912C0.186161 20.3506 0.120535 21.1099 0.0642856 21.8693C-0.0107144 22.9381 -0.0200894 24.0162 0.0361606 25.0849C0.158036 27.1756 0.561161 29.2568 1.28304 31.2256C2.71741 35.1443 5.54866 38.3974 9.35491 40.1599C11.5205 41.1537 13.9299 41.7256 16.283 42.0349C18.6737 42.3443 21.1112 42.3256 23.5018 41.9787C28.2737 41.2849 32.7362 39.1943 36.2612 35.9037C39.6737 32.7256 42.3549 28.6287 43.583 24.1099C44.8205 19.6193 44.2299 14.8381 41.7455 10.8631L41.7455 10.8631ZM1.48928 28.6568C1.13303 27.1381 0.964284 25.5631 0.936159 24.0068C0.917409 23.1443 0.954909 22.2818 1.03928 21.4193C1.07678 21.0068 1.11428 20.5943 1.16116 20.1818C1.16116 20.1631 1.16116 20.1349 1.16116 20.1162C1.18928 19.9193 1.21741 19.7224 1.23616 19.5256C1.48928 18.8412 1.46116 18.0818 1.59241 17.3693C1.66741 16.9849 1.76116 16.6006 1.84553 16.2162C1.86428 16.1412 1.87366 16.0568 1.88303 15.9631C1.92053 15.8693 1.96741 15.7662 2.01428 15.6724C2.05178 15.5412 2.07991 15.4006 2.11741 15.2693C2.16428 15.1849 2.19241 15.1006 2.18303 15.0256C4.30178 7.75057 11.4643 2.32244 18.8612 1.15994C23.0143 0.503695 27.2893 1.36619 31.0862 3.10995C30.9643 3.23182 30.908 3.40995 30.9924 3.6162C31.508 4.84432 31.4893 6.37245 31.508 7.68495C31.5362 9.18495 31.4705 10.6849 31.508 12.1849C31.5455 13.6568 31.8268 15.0818 31.9674 16.5349C32.033 17.2193 32.0705 17.9131 32.0799 18.5974C32.0987 19.3568 32.2018 20.0881 32.3237 20.8381C32.5299 22.1318 32.6705 23.4818 32.1174 24.7193C31.6955 25.6756 30.7862 26.2662 29.7268 26.0787C28.6862 25.8912 28.4049 25.1037 28.3393 24.1474C28.2549 22.9662 28.4237 21.7756 28.4143 20.5943C28.4049 19.2912 28.1799 18.0068 28.0955 16.7131C28.0299 15.5787 27.8799 14.4349 27.2893 13.4412C26.2393 11.6693 24.1487 11.2474 22.2455 11.1818C20.2299 11.1162 18.2424 11.4256 16.2268 11.3131C13.6955 11.1724 11.108 10.9943 8.61429 11.5287C7.53616 11.7537 6.52366 12.1193 5.62366 12.7849C4.79866 13.3943 4.14241 14.2006 3.62679 15.0818C2.58616 16.8631 2.21116 19.0943 2.61429 21.1099C3.06429 23.3037 4.90179 25.6193 7.27366 25.7599C8.52054 25.8349 9.77679 25.3474 11.0143 25.5068C11.7737 25.6099 12.6549 25.7412 13.2924 26.2006C14.0049 26.7162 13.5924 27.4756 12.983 27.8599C12.233 28.3381 11.2299 28.4599 10.3674 28.5068C8.97054 28.5912 7.55491 28.4693 6.14866 28.4412C4.62053 28.4037 3.05491 28.4318 1.48928 28.6568C1.49866 28.6568 1.49866 28.6568 1.48928 28.6568L1.48928 28.6568ZM33.1862 37.2349C29.2112 40.0287 24.3643 41.3412 19.5362 41.3318C17.0893 41.3224 14.6518 40.9381 12.308 40.2537C10.1612 39.6256 8.16428 38.6787 6.45803 37.2256C5.33303 36.2693 4.39553 35.1443 3.63616 33.9068C3.40178 33.9068 3.17678 33.9068 2.94241 33.9068C2.27678 33.9068 2.20178 32.8756 2.86741 32.8756C2.93303 32.8756 2.98928 32.8756 3.05491 32.8756C2.52053 31.8537 2.08928 30.7662 1.76116 29.6599C4.55491 29.285 7.34866 29.5849 10.1612 29.5381C11.6799 29.5193 13.9018 29.1724 14.5955 27.6068C15.4674 25.6568 13.0768 24.7849 11.6237 24.5412C10.4612 24.3443 9.35491 24.5974 8.19241 24.7099C7.53616 24.7662 6.88929 24.7474 6.28929 24.4474C5.73616 24.1662 5.23929 23.7537 4.83616 23.2756C2.09866 20.0787 3.81429 14.2099 7.73304 12.8318C10.1143 11.9881 12.8143 12.1474 15.2987 12.2787C16.3674 12.3349 17.4268 12.4193 18.4955 12.3631C19.4893 12.3068 20.483 12.2224 21.4862 12.2037C23.3705 12.1662 25.4799 12.3537 26.5299 14.1256C27.1018 15.0912 27.0737 16.3756 27.1299 17.4631C27.2049 18.8224 27.4393 20.1349 27.4018 21.5037C27.3549 23.2662 26.8205 26.0599 28.9112 26.9037C29.9143 27.3068 31.0205 27.2131 31.9112 26.5943C32.8299 25.9568 33.1862 24.9537 33.4393 23.9224C33.8612 22.2256 33.1299 20.5474 33.1299 18.8599C33.1205 17.1162 32.8299 15.4381 32.6518 13.7131C32.4643 11.9224 32.558 10.1224 32.558 8.33183C32.558 7.43182 32.5299 6.5412 32.4549 5.6412C32.3987 4.97557 32.3143 4.2537 32.0987 3.59745C33.983 4.56307 35.8205 5.7912 37.4424 7.24432C37.6112 6.75682 38.4362 6.75682 38.4455 7.34745C38.4455 7.63807 38.4549 7.9287 38.4549 8.20995C39.7955 9.58807 40.9487 11.1349 41.783 12.8318C46.0862 21.5881 40.5455 32.0506 33.1862 37.2349L33.1862 37.2349Z" transform="translate(2.7388406 3.1150527)" id="Shape" fill="#000000" fill-rule="evenodd" stroke="none" />
      <path d="M35.3906 0.965625C35.0625 0.628125 34.725 0.309375 34.3781 0C34.3594 0.0562499 34.35 0.1125 34.35 0.1875C34.3594 5.67188 35.7281 11.2031 34.9875 16.6875C34.8375 17.8313 34.5375 18.9375 34.0125 19.9594C33.5437 20.8688 32.7844 21.6 31.95 22.1719C30.225 23.3625 28.05 23.8688 25.9688 23.85C24.075 23.8312 22.2844 23.2031 21.3938 21.4313C20.5313 19.7063 20.5594 17.6813 20.625 15.8063C20.6813 14.2031 20.7469 12.4125 19.8656 11.0063C18.8062 9.30938 16.5938 9.16875 14.8031 9.20625C13.3406 9.23438 11.8969 9.29063 10.4344 9.16875C9.15 9.06563 7.8375 8.925 6.5625 9.19688C5.57812 9.4125 4.26562 9.91875 3.87187 10.9406C3.50625 11.8688 4.15312 12.675 4.9125 13.1344C7.19062 14.5219 10.0687 13.5094 12.5531 13.7813C14.5313 13.9969 16.3313 15.0281 17.3719 16.7438C18.3187 18.3094 18.4406 20.4 17.9156 22.125C17.475 23.5875 16.2563 24.5156 14.8688 25.0125C13.9781 25.3313 13.0406 25.4531 12.1031 25.5469C10.6875 25.6969 9.2625 25.7344 7.8375 25.7344C5.22187 25.7438 2.61563 25.65 0 25.6406C0.1875 25.9875 0.375 26.3344 0.590625 26.6719C3.28125 26.6906 5.97188 26.7844 8.6625 26.7563C11.0156 26.7281 13.6125 26.7 15.8063 25.7438C17.4 25.05 18.525 23.7844 19.0031 22.1156C19.5562 20.1656 19.2562 17.9063 18.2437 16.1625C17.2406 14.4281 15.4312 13.3125 13.5 12.8813C10.9687 12.3188 8.35312 13.3031 5.86875 12.4313C5.49375 12.3 5.03437 12.0656 4.85625 11.6813C4.67812 11.2781 5.08125 10.9688 5.37187 10.7719C6.46875 10.0406 7.86562 10.0125 9.14062 10.0875C10.5375 10.1719 11.925 10.3031 13.3312 10.275C14.6156 10.2469 15.9187 10.1156 17.1844 10.3969C17.8969 10.5563 18.5625 10.9031 18.9844 11.5125C19.3969 12.0938 19.5281 12.8344 19.5937 13.5281C19.7812 15.4313 19.4625 17.3344 19.725 19.2281C19.9687 20.9906 20.6531 22.7906 22.1625 23.8406C23.8312 25.0031 26.1094 25.0313 28.05 24.7313C30.1031 24.4125 32.0812 23.5875 33.6187 22.1719C35.25 20.6625 35.8594 18.4406 36.0937 16.3031C36.6281 11.1844 35.5219 6.075 35.3906 0.965625L35.3906 0.965625Z" transform="translate(5.793751 10.349999)" id="Shape" fill="#000000" fill-rule="evenodd" stroke="none" />
      <path d="M1.00312 0.460134C1.00312 -0.139866 0.168751 -0.130491 0 0.357009C0.346875 0.666385 0.684373 0.99451 1.0125 1.32263C1.00312 1.03201 1.00312 0.741384 1.00312 0.460134L1.00312 0.460134Z" transform="translate(40.171875 9.9929905)" id="Shape" fill="#000000" fill-rule="evenodd" stroke="none" />
    </g>
  </g>
</svg>